<svg xmlns="http://www.w3.org/2000/svg" version="1.1" xmlns:xlink="http://www.w3.org/1999/xlink" xmlns:svgjs="http://svgjs.dev/svgjs" width="1440" height="560" preserveAspectRatio="none" viewBox="0 0 1440 560"><g mask="url(&quot;#SvgjsMask1035&quot;)" fill="none"><rect width="1440" height="560" x="0" y="0" fill="url(&quot;#SvgjsLinearGradient1036&quot;)"></rect><path d="M-31.13 371.6 a120.51 120.51 0 1 0 241.02 0 a120.51 120.51 0 1 0 -241.02 0z" fill="rgba(28, 83, 142, 0.4)" class="triangle-float3"></path><path d="M603.22 502.81 a167.41 167.41 0 1 0 334.82 0 a167.41 167.41 0 1 0 -334.82 0z" fill="rgba(28, 83, 142, 0.4)" class="triangle-float3"></path><path d="M658.1786256718381 280.90071907430826L527.7364710132317 338.9773081017723 585.8130600406957 469.4194627603786 716.2552146993021 411.34287373291454z" fill="rgba(28, 83, 142, 0.4)" class="triangle-float1"></path><path d="M1186.87 5.13 a155.51 155.51 0 1 0 311.02 0 a155.51 155.51 0 1 0 -311.02 0z" fill="rgba(28, 83, 142, 0.4)" class="triangle-float2"></path><path d="M1146.74 313.47 a182.91 182.91 0 1 0 365.82 0 a182.91 182.91 0 1 0 -365.82 0z" fill="rgba(28, 83, 142, 0.4)" class="triangle-float1"></path><path d="M779.734,229.613C809.543,231.59,841.737,222.199,856.365,196.151C870.782,170.479,858.691,140.317,844.306,114.627C829.463,88.121,810.109,59.812,779.734,59.301C748.791,58.781,724.595,84.45,711.287,112.39C699.76,136.591,705.378,163.884,718.895,187.033C732.272,209.943,753.262,227.857,779.734,229.613" fill="rgba(28, 83, 142, 0.4)" class="triangle-float2"></path><path d="M533.68 552.45 a106.45 106.45 0 1 0 212.9 0 a106.45 106.45 0 1 0 -212.9 0z" fill="rgba(28, 83, 142, 0.4)" class="triangle-float2"></path><path d="M795.34 440.17 a102.41 102.41 0 1 0 204.82 0 a102.41 102.41 0 1 0 -204.82 0z" fill="rgba(28, 83, 142, 0.4)" class="triangle-float3"></path><path d="M605.8971321180592 352.1967965622841L722.4897742668169 352.1967965622841 722.4897742668169 235.60415441352637 605.8971321180592 235.60415441352637z" fill="rgba(28, 83, 142, 0.4)" class="triangle-float2"></path><path d="M354.62997964885676 237.4540432173368L280.2505842364355 127.18205471730542 244.3579911488254 311.83343862975806z" fill="rgba(28, 83, 142, 0.4)" class="triangle-float3"></path><path d="M896.91 310.45 a105.73 105.73 0 1 0 211.46 0 a105.73 105.73 0 1 0 -211.46 0z" fill="rgba(28, 83, 142, 0.4)" class="triangle-float1"></path><path d="M885.13 258.97 a129.36 129.36 0 1 0 258.72 0 a129.36 129.36 0 1 0 -258.72 0z" fill="rgba(28, 83, 142, 0.4)" class="triangle-float1"></path><path d="M645.9888015522341 607.520911118871L715.8660552482065 544.6031492865911 652.9482934159267 474.72589559061873 583.0710397199543 537.6436574228985z" fill="rgba(28, 83, 142, 0.4)" class="triangle-float2"></path><path d="M213.79 202.14 a143.59 143.59 0 1 0 287.18 0 a143.59 143.59 0 1 0 -287.18 0z" fill="rgba(28, 83, 142, 0.4)" class="triangle-float1"></path><path d="M123.91601284542261 129.29981244750158L113.95060394399026 192.21892799327622 213.31198171336843 175.70748357253746z" fill="rgba(28, 83, 142, 0.4)" class="triangle-float1"></path><path d="M418.226,317.002C469.025,316.185,521.579,299.867,546.489,255.587C571.024,211.974,554.571,160.561,531.093,116.371C505.57,68.331,472.611,15.392,418.226,14.168C362.568,12.915,323.107,62.345,296.202,111.084C270.414,157.801,255.414,213.921,282.618,259.828C309.422,305.061,365.655,317.847,418.226,317.002" fill="rgba(28, 83, 142, 0.4)" class="triangle-float1"></path><path d="M998.639,327.883C1018.417,326.758,1032.612,310.491,1041.611,292.843C1049.69,276.999,1051.03,258.318,1041.89,243.061C1032.985,228.195,1015.968,221.053,998.639,221.108C981.416,221.163,965.532,229.083,955.86,243.334C944.672,259.819,937.275,280.491,946.27,298.268C955.974,317.447,977.18,329.104,998.639,327.883" fill="rgba(28, 83, 142, 0.4)" class="triangle-float2"></path><path d="M964.9462637957324 263.1597096840805L894.2981384627135 326.77156745599143 1028.5581215676434 333.8078350170995z" fill="rgba(28, 83, 142, 0.4)" class="triangle-float3"></path><path d="M843.55 246.17 a156.18 156.18 0 1 0 312.36 0 a156.18 156.18 0 1 0 -312.36 0z" fill="rgba(28, 83, 142, 0.4)" class="triangle-float1"></path><path d="M793.678,203.343C836.779,203.391,879.496,187.563,902.395,151.048C926.719,112.261,929.754,62.583,906.792,22.974C883.894,-16.524,839.324,-35.577,793.678,-36.486C746.169,-37.432,696.273,-22.825,672.487,18.311C648.68,59.484,659.322,111.02,685.381,150.806C708.943,186.78,750.675,203.295,793.678,203.343" fill="rgba(28, 83, 142, 0.4)" class="triangle-float3"></path></g><defs><mask id="SvgjsMask1035"><rect width="1440" height="560" fill="#ffffff"></rect></mask><linearGradient x1="15.28%" y1="-39.29%" x2="84.72%" y2="139.29%" gradientUnits="userSpaceOnUse" id="SvgjsLinearGradient1036"><stop stop-color="#0e2a47" offset="0"></stop><stop stop-color="#00459e" offset="1"></stop></linearGradient><style>
                @keyframes float1 {
                    0%{transform: translate(0, 0)}
                    50%{transform: translate(-10px, 0)}
                    100%{transform: translate(0, 0)}
                }

                .triangle-float1 {
                    animation: float1 5s infinite;
                }

                @keyframes float2 {
                    0%{transform: translate(0, 0)}
                    50%{transform: translate(-5px, -5px)}
                    100%{transform: translate(0, 0)}
                }

                .triangle-float2 {
                    animation: float2 4s infinite;
                }

                @keyframes float3 {
                    0%{transform: translate(0, 0)}
                    50%{transform: translate(0, -10px)}
                    100%{transform: translate(0, 0)}
                }

                .triangle-float3 {
                    animation: float3 6s infinite;
                }
            </style></defs></svg>