<svg width="118" height="71" viewBox="0 0 118 71" fill="none" xmlns="http://www.w3.org/2000/svg">
<path d="M57.2738 41.7125L65.7617 36.3149L74.1961 41.7125L65.7618 46.6725L57.2738 41.7125Z" fill="#E77829" stroke="white"/>
<path d="M45.5236 23.5601L53.227 28.4198L45.5236 33.2795V23.5601Z" fill="#E77829" stroke="white"/>
<path d="M66.1483 23.2231L66.1483 22.9339L65.8976 22.7897L45.5041 11.0548L45.5039 0.863013L75.3793 17.9912L75.3793 28.6247L66.1483 34.1927L66.1483 23.2231Z" fill="url(#paint0_linear_3_79)" stroke="white"/>
<mask id="path-4-outside-1_3_79" maskUnits="userSpaceOnUse" x="-2" y="53" width="121" height="16" fill="black">
<rect fill="white" x="-2" y="53" width="121" height="16"/>
<path d="M0.162997 67L2.21555 54.6364H7.3228C8.24846 54.6364 9.02119 54.8034 9.64098 55.1374C10.2608 55.4674 10.7015 55.9424 10.9631 56.5621C11.2247 57.1779 11.285 57.9084 11.1442 58.7536C11.0073 59.6068 10.7015 60.3332 10.2266 60.9329C9.75568 61.5285 9.14796 61.9833 8.40341 62.2972C7.66288 62.6112 6.82173 62.7681 5.87997 62.7681H2.65021L3.04865 60.4137H5.72301C6.16974 60.4137 6.55611 60.3554 6.8821 60.2386C7.2081 60.1179 7.46768 59.9368 7.66087 59.6953C7.85807 59.4498 7.98887 59.1359 8.05327 58.7536C8.11364 58.3712 8.08546 58.0553 7.96875 57.8058C7.85606 57.5522 7.65684 57.363 7.37109 57.2383C7.08937 57.1095 6.72715 57.0451 6.28445 57.0451H4.81143L3.15128 67H0.162997ZM8.0593 61.3494L10.2024 67H6.94247L4.86577 61.3494H8.0593ZM21.084 54.6364H24.0662L22.7441 62.6112C22.5912 63.5328 22.2391 64.3357 21.6877 65.0199C21.1403 65.7 20.4421 66.2273 19.5929 66.6016C18.7437 66.9718 17.7979 67.157 16.7555 67.157C15.7091 67.157 14.8257 66.9718 14.1053 66.6016C13.3849 66.2273 12.8637 65.7 12.5417 65.0199C12.2198 64.3357 12.1332 63.5328 12.2821 62.6112L13.6042 54.6364H16.5925L15.3066 62.3516C15.2382 62.7782 15.2704 63.1585 15.4032 63.4925C15.5401 63.8226 15.7614 64.0842 16.0673 64.2773C16.3732 64.4665 16.7475 64.5611 17.1902 64.5611C17.6369 64.5611 18.0454 64.4665 18.4157 64.2773C18.7859 64.0842 19.0918 63.8226 19.3333 63.4925C19.5748 63.1585 19.7297 62.7782 19.7981 62.3516L21.084 54.6364ZM23.8866 67L25.9392 54.6364H31.0464C31.9721 54.6364 32.7428 54.8155 33.3586 55.1737C33.9743 55.5318 34.411 56.0329 34.6686 56.6768C34.9262 57.3208 34.9845 58.0674 34.8437 58.9165C34.7068 59.7738 34.3989 60.5204 33.92 61.1562C33.4451 61.7921 32.8334 62.2852 32.0848 62.6353C31.3362 62.9854 30.485 63.1605 29.5312 63.1605H26.3859L26.7783 60.8061H29.3742C29.829 60.8061 30.2214 60.7276 30.5514 60.5707C30.8854 60.4137 31.1531 60.1944 31.3543 59.9126C31.5555 59.6309 31.6884 59.2989 31.7528 58.9165C31.8131 58.5342 31.789 58.2042 31.6803 57.9265C31.5716 57.6448 31.3765 57.4274 31.0947 57.2745C30.817 57.1216 30.4548 57.0451 30.0081 57.0451H28.5351L26.8749 67H23.8866ZM34.9599 67L37.0124 54.6364H45.6332L45.2227 57.0632H39.5902L39.1797 59.5987H44.3714L43.9609 62.0316H38.7692L38.3587 64.5732H43.9911L43.5806 67H34.9599ZM45.4521 67L47.5046 54.6364H56.1254L55.7148 57.0632H50.0824L49.6719 59.5987H54.8636L54.4531 62.0316H49.2614L48.8509 64.5732H54.4833L54.0728 67H45.4521ZM64.5589 54.6364L66.1648 58.5423H66.2614L69.1953 54.6364H72.6545L67.9094 60.8182L70.7227 67H67.3722L65.706 63.0518H65.6094L62.6392 67H59.1559L64.0277 60.8182L61.305 54.6364H64.5589ZM72.1474 67L74.1999 54.6364H79.3072C80.2328 54.6364 81.0036 54.8155 81.6193 55.1737C82.2351 55.5318 82.6718 56.0329 82.9293 56.6768C83.1869 57.3208 83.2453 58.0674 83.1044 58.9165C82.9676 59.7738 82.6597 60.5204 82.1808 61.1562C81.7058 61.7921 81.0941 62.2852 80.3455 62.6353C79.5969 62.9854 78.7457 63.1605 77.7919 63.1605H74.6467L75.0391 60.8061H77.6349C78.0897 60.8061 78.4821 60.7276 78.8121 60.5707C79.1462 60.4137 79.4138 60.1944 79.6151 59.9126C79.8163 59.6309 79.9491 59.2989 80.0135 58.9165C80.0739 58.5342 80.0497 58.2042 79.9411 57.9265C79.8324 57.6448 79.6372 57.4274 79.3555 57.2745C79.0778 57.1216 78.7156 57.0451 78.2688 57.0451H76.7958L75.1357 67H72.1474ZM83.2206 67L85.2732 54.6364H93.8939L93.4834 57.0632H87.8509L87.4404 59.5987H92.6322L92.2217 62.0316H87.0299L86.6194 64.5732H92.2519L91.8414 67H83.2206ZM93.7128 67L95.7654 54.6364H100.873C101.798 54.6364 102.571 54.8034 103.191 55.1374C103.811 55.4674 104.251 55.9424 104.513 56.5621C104.774 57.1779 104.835 57.9084 104.694 58.7536C104.557 59.6068 104.251 60.3332 103.776 60.9329C103.305 61.5285 102.698 61.9833 101.953 62.2972C101.213 62.6112 100.372 62.7681 99.4298 62.7681H96.2L96.5985 60.4137H99.2728C99.7195 60.4137 100.106 60.3554 100.432 60.2386C100.758 60.1179 101.017 59.9368 101.211 59.6953C101.408 59.4498 101.539 59.1359 101.603 58.7536C101.663 58.3712 101.635 58.0553 101.519 57.8058C101.406 57.5522 101.207 57.363 100.921 57.2383C100.639 57.1095 100.277 57.0451 99.8343 57.0451H98.3612L96.7011 67H93.7128ZM101.609 61.3494L103.752 67H100.492L98.4156 61.3494H101.609ZM106.339 57.0632L106.75 54.6364H117.199L116.789 57.0632H113.04L111.398 67H108.452L110.094 57.0632H106.339Z"/>
</mask>
<path d="M0.162997 67L2.21555 54.6364H7.3228C8.24846 54.6364 9.02119 54.8034 9.64098 55.1374C10.2608 55.4674 10.7015 55.9424 10.9631 56.5621C11.2247 57.1779 11.285 57.9084 11.1442 58.7536C11.0073 59.6068 10.7015 60.3332 10.2266 60.9329C9.75568 61.5285 9.14796 61.9833 8.40341 62.2972C7.66288 62.6112 6.82173 62.7681 5.87997 62.7681H2.65021L3.04865 60.4137H5.72301C6.16974 60.4137 6.55611 60.3554 6.8821 60.2386C7.2081 60.1179 7.46768 59.9368 7.66087 59.6953C7.85807 59.4498 7.98887 59.1359 8.05327 58.7536C8.11364 58.3712 8.08546 58.0553 7.96875 57.8058C7.85606 57.5522 7.65684 57.363 7.37109 57.2383C7.08937 57.1095 6.72715 57.0451 6.28445 57.0451H4.81143L3.15128 67H0.162997ZM8.0593 61.3494L10.2024 67H6.94247L4.86577 61.3494H8.0593ZM21.084 54.6364H24.0662L22.7441 62.6112C22.5912 63.5328 22.2391 64.3357 21.6877 65.0199C21.1403 65.7 20.4421 66.2273 19.5929 66.6016C18.7437 66.9718 17.7979 67.157 16.7555 67.157C15.7091 67.157 14.8257 66.9718 14.1053 66.6016C13.3849 66.2273 12.8637 65.7 12.5417 65.0199C12.2198 64.3357 12.1332 63.5328 12.2821 62.6112L13.6042 54.6364H16.5925L15.3066 62.3516C15.2382 62.7782 15.2704 63.1585 15.4032 63.4925C15.5401 63.8226 15.7614 64.0842 16.0673 64.2773C16.3732 64.4665 16.7475 64.5611 17.1902 64.5611C17.6369 64.5611 18.0454 64.4665 18.4157 64.2773C18.7859 64.0842 19.0918 63.8226 19.3333 63.4925C19.5748 63.1585 19.7297 62.7782 19.7981 62.3516L21.084 54.6364ZM23.8866 67L25.9392 54.6364H31.0464C31.9721 54.6364 32.7428 54.8155 33.3586 55.1737C33.9743 55.5318 34.411 56.0329 34.6686 56.6768C34.9262 57.3208 34.9845 58.0674 34.8437 58.9165C34.7068 59.7738 34.3989 60.5204 33.92 61.1562C33.4451 61.7921 32.8334 62.2852 32.0848 62.6353C31.3362 62.9854 30.485 63.1605 29.5312 63.1605H26.3859L26.7783 60.8061H29.3742C29.829 60.8061 30.2214 60.7276 30.5514 60.5707C30.8854 60.4137 31.1531 60.1944 31.3543 59.9126C31.5555 59.6309 31.6884 59.2989 31.7528 58.9165C31.8131 58.5342 31.789 58.2042 31.6803 57.9265C31.5716 57.6448 31.3765 57.4274 31.0947 57.2745C30.817 57.1216 30.4548 57.0451 30.0081 57.0451H28.5351L26.8749 67H23.8866ZM34.9599 67L37.0124 54.6364H45.6332L45.2227 57.0632H39.5902L39.1797 59.5987H44.3714L43.9609 62.0316H38.7692L38.3587 64.5732H43.9911L43.5806 67H34.9599ZM45.4521 67L47.5046 54.6364H56.1254L55.7148 57.0632H50.0824L49.6719 59.5987H54.8636L54.4531 62.0316H49.2614L48.8509 64.5732H54.4833L54.0728 67H45.4521ZM64.5589 54.6364L66.1648 58.5423H66.2614L69.1953 54.6364H72.6545L67.9094 60.8182L70.7227 67H67.3722L65.706 63.0518H65.6094L62.6392 67H59.1559L64.0277 60.8182L61.305 54.6364H64.5589ZM72.1474 67L74.1999 54.6364H79.3072C80.2328 54.6364 81.0036 54.8155 81.6193 55.1737C82.2351 55.5318 82.6718 56.0329 82.9293 56.6768C83.1869 57.3208 83.2453 58.0674 83.1044 58.9165C82.9676 59.7738 82.6597 60.5204 82.1808 61.1562C81.7058 61.7921 81.0941 62.2852 80.3455 62.6353C79.5969 62.9854 78.7457 63.1605 77.7919 63.1605H74.6467L75.0391 60.8061H77.6349C78.0897 60.8061 78.4821 60.7276 78.8121 60.5707C79.1462 60.4137 79.4138 60.1944 79.6151 59.9126C79.8163 59.6309 79.9491 59.2989 80.0135 58.9165C80.0739 58.5342 80.0497 58.2042 79.9411 57.9265C79.8324 57.6448 79.6372 57.4274 79.3555 57.2745C79.0778 57.1216 78.7156 57.0451 78.2688 57.0451H76.7958L75.1357 67H72.1474ZM83.2206 67L85.2732 54.6364H93.8939L93.4834 57.0632H87.8509L87.4404 59.5987H92.6322L92.2217 62.0316H87.0299L86.6194 64.5732H92.2519L91.8414 67H83.2206ZM93.7128 67L95.7654 54.6364H100.873C101.798 54.6364 102.571 54.8034 103.191 55.1374C103.811 55.4674 104.251 55.9424 104.513 56.5621C104.774 57.1779 104.835 57.9084 104.694 58.7536C104.557 59.6068 104.251 60.3332 103.776 60.9329C103.305 61.5285 102.698 61.9833 101.953 62.2972C101.213 62.6112 100.372 62.7681 99.4298 62.7681H96.2L96.5985 60.4137H99.2728C99.7195 60.4137 100.106 60.3554 100.432 60.2386C100.758 60.1179 101.017 59.9368 101.211 59.6953C101.408 59.4498 101.539 59.1359 101.603 58.7536C101.663 58.3712 101.635 58.0553 101.519 57.8058C101.406 57.5522 101.207 57.363 100.921 57.2383C100.639 57.1095 100.277 57.0451 99.8343 57.0451H98.3612L96.7011 67H93.7128ZM101.609 61.3494L103.752 67H100.492L98.4156 61.3494H101.609ZM106.339 57.0632L106.75 54.6364H117.199L116.789 57.0632H113.04L111.398 67H108.452L110.094 57.0632H106.339Z" fill="url(#paint1_linear_3_79)"/>
<path d="M0.162997 67L-0.823501 66.8362L-1.01671 68H0.162997V67ZM2.21555 54.6364V53.6364H1.36788L1.22906 54.4726L2.21555 54.6364ZM9.64098 55.1374L9.16653 56.0177L9.17099 56.0201L9.64098 55.1374ZM10.9631 56.5621L10.0418 56.951L10.0427 56.9532L10.9631 56.5621ZM11.1442 58.7536L10.1578 58.5891L10.1568 58.5952L11.1442 58.7536ZM10.2266 60.9329L9.44262 60.312L9.44209 60.3127L10.2266 60.9329ZM8.40341 62.2972L8.01491 61.3758L8.01312 61.3765L8.40341 62.2972ZM2.65021 62.7681L1.66423 62.6013L1.46676 63.7681H2.65021V62.7681ZM3.04865 60.4137V59.4137H2.20366L2.06267 60.2468L3.04865 60.4137ZM6.8821 60.2386L7.21919 61.1802L7.22942 61.1764L6.8821 60.2386ZM7.66087 59.6953L6.88124 59.0691L6.88 59.0706L7.66087 59.6953ZM8.05327 58.7536L9.03943 58.9196L9.04103 58.9095L8.05327 58.7536ZM7.96875 57.8058L7.05494 58.2119L7.05885 58.2207L7.06294 58.2294L7.96875 57.8058ZM7.37109 57.2383L6.95533 58.1478L6.96311 58.1513L6.97095 58.1547L7.37109 57.2383ZM4.81143 57.0451V56.0451H3.96439L3.82506 56.8806L4.81143 57.0451ZM3.15128 67V68H3.99832L4.13766 67.1645L3.15128 67ZM8.0593 61.3494L8.99431 60.9948L8.74954 60.3494H8.0593V61.3494ZM10.2024 67V68H11.6512L11.1374 66.6454L10.2024 67ZM6.94247 67L6.00385 67.345L6.2446 68H6.94247V67ZM4.86577 61.3494V60.3494H3.43285L3.92715 61.6944L4.86577 61.3494ZM1.1495 67.1638L3.20205 54.8001L1.22906 54.4726L-0.823501 66.8362L1.1495 67.1638ZM2.21555 55.6364H7.3228V53.6364H2.21555V55.6364ZM7.3228 55.6364C8.13319 55.6364 8.73122 55.7831 9.16654 56.0177L10.1154 54.2571C9.31115 53.8237 8.36373 53.6364 7.3228 53.6364V55.6364ZM9.17099 56.0201C9.59771 56.2473 9.87359 56.5525 10.0418 56.951L11.8844 56.1733C11.5293 55.3322 10.9238 54.6876 10.111 54.2548L9.17099 56.0201ZM10.0427 56.9532C10.2116 57.3509 10.2761 57.8795 10.1578 58.5892L12.1306 58.9179C12.294 57.9372 12.2377 57.005 11.8835 56.1711L10.0427 56.9532ZM10.1568 58.5952C10.0435 59.3017 9.79806 59.8632 9.44262 60.312L11.0105 61.5537C11.6049 60.8032 11.9712 59.9119 12.1316 58.9119L10.1568 58.5952ZM9.44209 60.3127C9.08242 60.7677 8.61448 61.123 8.01491 61.3758L8.79191 63.2187C9.68144 62.8436 10.4289 62.2894 11.011 61.553L9.44209 60.3127ZM8.01312 61.3765C7.4153 61.63 6.71025 61.7681 5.87997 61.7681V63.7681C6.93322 63.7681 7.91046 63.5923 8.7937 63.2179L8.01312 61.3765ZM5.87997 61.7681H2.65021V63.7681H5.87997V61.7681ZM3.63619 62.935L4.03463 60.5806L2.06267 60.2468L1.66423 62.6013L3.63619 62.935ZM3.04865 61.4137H5.72301V59.4137H3.04865V61.4137ZM5.72301 61.4137C6.25298 61.4137 6.75877 61.3449 7.21917 61.1801L6.54503 59.2972C6.35344 59.3658 6.08651 59.4137 5.72301 59.4137V61.4137ZM7.22942 61.1764C7.70401 61.0006 8.12153 60.7203 8.44174 60.32L6.88 59.0706C6.81384 59.1533 6.71218 59.2352 6.53479 59.3009L7.22942 61.1764ZM8.44049 60.3216C8.7668 59.9153 8.9531 59.4319 9.03938 58.9196L7.06716 58.5875C7.02464 58.8399 6.94934 58.9843 6.88125 59.0691L8.44049 60.3216ZM9.04103 58.9095C9.12037 58.407 9.10366 57.8719 8.87456 57.3821L7.06294 58.2294C7.06726 58.2387 7.1069 58.3354 7.0655 58.5976L9.04103 58.9095ZM8.88256 57.3996C8.65565 56.8891 8.25542 56.5332 7.77123 56.3218L6.97095 58.1547C7.02152 58.1768 7.0415 58.1944 7.04626 58.1989C7.04957 58.202 7.05143 58.204 7.05494 58.2119L8.88256 57.3996ZM7.78685 56.3288C7.33115 56.1205 6.81354 56.0451 6.28445 56.0451V58.0451C6.64076 58.0451 6.84759 58.0985 6.95533 58.1478L7.78685 56.3288ZM6.28445 56.0451H4.81143V58.0451H6.28445V56.0451ZM3.82506 56.8806L2.1649 66.8355L4.13766 67.1645L5.79781 57.2096L3.82506 56.8806ZM3.15128 66H0.162997V68H3.15128V66ZM7.1243 61.7041L9.26741 67.3546L11.1374 66.6454L8.99431 60.9948L7.1243 61.7041ZM10.2024 66H6.94247V68H10.2024V66ZM7.88109 66.655L5.80438 61.0045L3.92715 61.6944L6.00385 67.345L7.88109 66.655ZM4.86577 62.3494H8.0593V60.3494H4.86577V62.3494ZM21.084 54.6364V53.6364H20.2369L20.0976 54.472L21.084 54.6364ZM24.0662 54.6364L25.0528 54.7999L25.2457 53.6364H24.0662V54.6364ZM22.7441 62.6112L23.7307 62.7749L23.7307 62.7747L22.7441 62.6112ZM21.6877 65.0199L20.909 64.3924L20.9086 64.3929L21.6877 65.0199ZM19.5929 66.6016L19.9925 67.5182L19.9962 67.5166L19.5929 66.6016ZM14.1053 66.6016L13.6442 67.489L13.6482 67.491L14.1053 66.6016ZM12.5417 65.0199L11.6369 65.4457L11.6379 65.4477L12.5417 65.0199ZM12.2821 62.6112L11.2956 62.4476L11.2949 62.4516L12.2821 62.6112ZM13.6042 54.6364V53.6364H12.7564L12.6177 54.4728L13.6042 54.6364ZM16.5925 54.6364L17.5789 54.8008L17.773 53.6364H16.5925V54.6364ZM15.3066 62.3516L14.3202 62.1872L14.3193 62.1932L15.3066 62.3516ZM15.4032 63.4925L14.474 63.862L14.4767 63.8688L14.4795 63.8756L15.4032 63.4925ZM16.0673 64.2773L15.5333 65.1229L15.5413 65.1278L16.0673 64.2773ZM18.4157 64.2773L18.8706 65.1679L18.8782 65.1639L18.4157 64.2773ZM19.3333 63.4925L20.1403 64.0831L20.1437 64.0784L19.3333 63.4925ZM19.7981 62.3516L18.8117 62.1872L18.8107 62.1932L19.7981 62.3516ZM21.084 55.6364H24.0662V53.6364H21.084V55.6364ZM23.0797 54.4728L21.7576 62.4476L23.7307 62.7747L25.0528 54.7999L23.0797 54.4728ZM21.7576 62.4475C21.631 63.2103 21.3455 63.8508 20.909 64.3924L22.4663 65.6474C23.1326 64.8206 23.5514 63.8553 23.7307 62.7749L21.7576 62.4475ZM20.9086 64.3929C20.4679 64.9405 19.9017 65.3726 19.1895 65.6865L19.9962 67.5166C20.9824 67.0819 21.8127 66.4596 22.4667 65.6468L20.9086 64.3929ZM19.1932 65.6849C18.4849 65.9937 17.6776 66.157 16.7555 66.157V68.157C17.9182 68.157 19.0024 67.9499 19.9925 67.5182L19.1932 65.6849ZM16.7555 66.157C15.8232 66.157 15.1062 65.9917 14.5624 65.7122L13.6482 67.491C14.5452 67.952 15.595 68.157 16.7555 68.157V66.157ZM14.5663 65.7142C14.0235 65.4322 13.6665 65.0588 13.4456 64.592L11.6379 65.4477C12.0608 66.3413 12.7463 67.0224 13.6443 67.4889L14.5663 65.7142ZM13.4465 64.5941C13.2287 64.1311 13.145 63.5404 13.2693 62.7707L11.2949 62.4516C11.1215 63.5251 11.2108 64.5403 11.6369 65.4457L13.4465 64.5941ZM13.2687 62.7747L14.5908 54.7999L12.6177 54.4728L11.2956 62.4476L13.2687 62.7747ZM13.6042 55.6364H16.5925V53.6364H13.6042V55.6364ZM15.6061 54.472L14.3202 62.1872L16.293 62.516L17.5789 54.8008L15.6061 54.472ZM14.3193 62.1932C14.2281 62.7617 14.2623 63.3295 14.474 63.862L16.3325 63.1231C16.2786 62.9875 16.2484 62.7946 16.294 62.5099L14.3193 62.1932ZM14.4795 63.8756C14.6965 64.3988 15.0553 64.8209 15.5333 65.1228L16.6013 63.4319C16.4676 63.3474 16.3837 63.2463 16.327 63.1095L14.4795 63.8756ZM15.5413 65.1278C16.0381 65.4351 16.6045 65.5611 17.1902 65.5611V63.5611C16.8904 63.5611 16.7082 63.4979 16.5933 63.4268L15.5413 65.1278ZM17.1902 65.5611C17.783 65.5611 18.3491 65.4343 18.8706 65.1679L17.9607 63.3868C17.7417 63.4987 17.4908 63.5611 17.1902 63.5611V65.5611ZM18.8782 65.1639C19.3815 64.9013 19.8063 64.5396 20.1403 64.0831L18.5262 62.902C18.3773 63.1055 18.1903 63.267 17.9531 63.3908L18.8782 65.1639ZM20.1437 64.0784C20.4812 63.6115 20.6936 63.0832 20.7855 62.5099L18.8107 62.1932C18.7658 62.4731 18.6683 62.7055 18.5229 62.9067L20.1437 64.0784ZM20.7845 62.516L22.0704 54.8008L20.0976 54.472L18.8117 62.1872L20.7845 62.516ZM23.8866 67L22.9001 66.8362L22.7069 68H23.8866V67ZM25.9392 54.6364V53.6364H25.0915L24.9527 54.4726L25.9392 54.6364ZM34.6686 56.6768L35.5971 56.3055L35.5971 56.3055L34.6686 56.6768ZM34.8437 58.9165L33.8571 58.7529L33.8562 58.7589L34.8437 58.9165ZM33.92 61.1562L33.1212 60.5546L33.1188 60.5579L33.92 61.1562ZM32.0848 62.6353L32.5085 63.5411L32.5085 63.5411L32.0848 62.6353ZM26.3859 63.1605L25.3995 62.9961L25.2055 64.1605H26.3859V63.1605ZM26.7783 60.8061V59.8061H25.9312L25.7919 60.6417L26.7783 60.8061ZM30.5514 60.5707L30.1261 59.6656L30.1219 59.6676L30.5514 60.5707ZM31.3543 59.9126L30.5406 59.3314L30.5406 59.3314L31.3543 59.9126ZM31.7528 58.9165L32.7389 59.0826L32.7405 59.0725L31.7528 58.9165ZM31.6803 57.9265L30.7473 58.2864L30.7491 58.2909L31.6803 57.9265ZM31.0947 57.2745L30.6123 58.1505L30.6176 58.1534L31.0947 57.2745ZM28.5351 57.0451V56.0451H27.688L27.5487 56.8806L28.5351 57.0451ZM26.8749 67V68H27.722L27.8613 67.1645L26.8749 67ZM24.8731 67.1638L26.9257 54.8001L24.9527 54.4726L22.9001 66.8362L24.8731 67.1638ZM25.9392 55.6364H31.0464V53.6364H25.9392V55.6364ZM31.0464 55.6364C31.8471 55.6364 32.4318 55.7915 32.8558 56.038L33.8614 54.3093C33.0538 53.8395 32.0971 53.6364 31.0464 53.6364V55.6364ZM32.8558 56.038C33.2843 56.2873 33.5678 56.6175 33.7401 57.0482L35.5971 56.3055C35.2542 55.4483 34.6644 54.7764 33.8614 54.3093L32.8558 56.038ZM33.7401 57.0482C33.9152 57.4859 33.9753 58.0408 33.8571 58.7529L35.8302 59.0802C35.9938 58.0939 35.9371 57.1556 35.5971 56.3055L33.7401 57.0482ZM33.8562 58.7589C33.7427 59.4699 33.4933 60.0607 33.1212 60.5546L34.7188 61.7579C35.3046 60.98 35.671 60.0777 35.8312 59.0742L33.8562 58.7589ZM33.1188 60.5579C32.7466 61.0562 32.2668 61.4462 31.6611 61.7295L32.5085 63.5411C33.3999 63.1241 34.1436 62.5281 34.7212 61.7546L33.1188 60.5579ZM31.6611 61.7295C31.0641 62.0087 30.3611 62.1605 29.5312 62.1605V64.1605C30.6089 64.1605 31.6083 63.9622 32.5085 63.5411L31.6611 61.7295ZM29.5312 62.1605H26.3859V64.1605H29.5312V62.1605ZM27.3723 63.3249L27.7647 60.9705L25.7919 60.6417L25.3995 62.9961L27.3723 63.3249ZM26.7783 61.8061H29.3742V59.8061H26.7783V61.8061ZM29.3742 61.8061C29.9422 61.8061 30.488 61.7082 30.9809 61.4737L30.1219 59.6676C29.9547 59.7471 29.7158 59.8061 29.3742 59.8061V61.8061ZM30.9767 61.4757C31.4552 61.2509 31.8606 60.9243 32.168 60.4939L30.5406 59.3314C30.4455 59.4645 30.3157 59.5765 30.1261 59.6656L30.9767 61.4757ZM32.168 60.4939C32.4676 60.0745 32.6523 59.5965 32.7389 59.0826L30.7666 58.7505C30.7244 59.0012 30.6435 59.1873 30.5406 59.3314L32.168 60.4939ZM32.7405 59.0725C32.8205 58.5658 32.8015 58.0474 32.6116 57.5621L30.7491 58.2909C30.7765 58.3609 30.8057 58.5026 30.765 58.7606L32.7405 59.0725ZM32.6133 57.5666C32.4136 57.0489 32.0484 56.6544 31.5718 56.3956L30.6176 58.1534C30.7045 58.2005 30.7297 58.2407 30.7473 58.2864L32.6133 57.5666ZM31.5771 56.3986C31.1035 56.1377 30.5583 56.0451 30.0081 56.0451V58.0451C30.3513 58.0451 30.5305 58.1054 30.6123 58.1505L31.5771 56.3986ZM30.0081 56.0451H28.5351V58.0451H30.0081V56.0451ZM27.5487 56.8806L25.8885 66.8355L27.8613 67.1645L29.5214 57.2096L27.5487 56.8806ZM26.8749 66H23.8866V68H26.8749V66ZM34.9599 67L33.9734 66.8362L33.7802 68H34.9599V67ZM37.0124 54.6364V53.6364H36.1648L36.0259 54.4726L37.0124 54.6364ZM45.6332 54.6364L46.6192 54.8031L46.8165 53.6364H45.6332V54.6364ZM45.2227 57.0632V58.0632H46.0677L46.2086 57.23L45.2227 57.0632ZM39.5902 57.0632V56.0632H38.7391L38.6031 56.9034L39.5902 57.0632ZM39.1797 59.5987L38.1925 59.4389L38.0048 60.5987H39.1797V59.5987ZM44.3714 59.5987L45.3575 59.7651L45.5543 58.5987H44.3714V59.5987ZM43.9609 62.0316V63.0316H44.8063L44.947 62.198L43.9609 62.0316ZM38.7692 62.0316V61.0316H37.9177L37.782 61.8722L38.7692 62.0316ZM38.3587 64.5732L37.3715 64.4137L37.1842 65.5732H38.3587V64.5732ZM43.9911 64.5732L44.9771 64.7399L45.1745 63.5732H43.9911V64.5732ZM43.5806 67V68H44.4257L44.5666 67.1668L43.5806 67ZM35.9464 67.1638L37.9989 54.8001L36.0259 54.4726L33.9734 66.8362L35.9464 67.1638ZM37.0124 55.6364H45.6332V53.6364H37.0124V55.6364ZM44.6472 54.4696L44.2367 56.8964L46.2086 57.23L46.6192 54.8031L44.6472 54.4696ZM45.2227 56.0632H39.5902V58.0632H45.2227V56.0632ZM38.6031 56.9034L38.1925 59.4389L40.1668 59.7585L40.5773 57.223L38.6031 56.9034ZM39.1797 60.5987H44.3714V58.5987H39.1797V60.5987ZM43.3854 59.4323L42.9749 61.8652L44.947 62.198L45.3575 59.7651L43.3854 59.4323ZM43.9609 61.0316H38.7692V63.0316H43.9609V61.0316ZM37.782 61.8722L37.3715 64.4137L39.3459 64.7326L39.7564 62.1911L37.782 61.8722ZM38.3587 65.5732H43.9911V63.5732H38.3587V65.5732ZM43.0051 64.4064L42.5946 66.8332L44.5666 67.1668L44.9771 64.7399L43.0051 64.4064ZM43.5806 66H34.9599V68H43.5806V66ZM45.4521 67L44.4656 66.8362L44.2724 68H45.4521V67ZM47.5046 54.6364V53.6364H46.6569L46.5181 54.4726L47.5046 54.6364ZM56.1254 54.6364L57.1113 54.8031L57.3087 53.6364H56.1254V54.6364ZM55.7148 57.0632V58.0632H56.5599L56.7008 57.23L55.7148 57.0632ZM50.0824 57.0632V56.0632H49.2313L49.0952 56.9034L50.0824 57.0632ZM49.6719 59.5987L48.6847 59.4389L48.4969 60.5987H49.6719V59.5987ZM54.8636 59.5987L55.8497 59.7651L56.0465 58.5987H54.8636V59.5987ZM54.4531 62.0316V63.0316H55.2985L55.4392 62.198L54.4531 62.0316ZM49.2614 62.0316V61.0316H48.4099L48.2742 61.8722L49.2614 62.0316ZM48.8509 64.5732L47.8636 64.4137L47.6764 65.5732H48.8509V64.5732ZM54.4833 64.5732L55.4693 64.7399L55.6667 63.5732H54.4833V64.5732ZM54.0728 67V68H54.9179L55.0588 67.1668L54.0728 67ZM46.4386 67.1638L48.4911 54.8001L46.5181 54.4726L44.4656 66.8362L46.4386 67.1638ZM47.5046 55.6364H56.1254V53.6364H47.5046V55.6364ZM55.1394 54.4696L54.7289 56.8964L56.7008 57.23L57.1113 54.8031L55.1394 54.4696ZM55.7148 56.0632H50.0824V58.0632H55.7148V56.0632ZM49.0952 56.9034L48.6847 59.4389L50.659 59.7585L51.0695 57.223L49.0952 56.9034ZM49.6719 60.5987H54.8636V58.5987H49.6719V60.5987ZM53.8776 59.4323L53.4671 61.8652L55.4392 62.198L55.8497 59.7651L53.8776 59.4323ZM54.4531 61.0316H49.2614V63.0316H54.4531V61.0316ZM48.2742 61.8722L47.8636 64.4137L49.8381 64.7326L50.2486 62.1911L48.2742 61.8722ZM48.8509 65.5732H54.4833V63.5732H48.8509V65.5732ZM53.4973 64.4064L53.0868 66.8332L55.0588 67.1668L55.4693 64.7399L53.4973 64.4064ZM54.0728 66H45.4521V68H54.0728V66ZM64.5589 54.6364L65.4838 54.2561L65.229 53.6364H64.5589V54.6364ZM66.1648 58.5423L65.2399 58.9225L65.4947 59.5423H66.1648V58.5423ZM66.2614 58.5423V59.5423H66.7609L67.0609 59.1429L66.2614 58.5423ZM69.1953 54.6364V53.6364H68.6958L68.3958 54.0358L69.1953 54.6364ZM72.6545 54.6364L73.4477 55.2453L74.6827 53.6364H72.6545V54.6364ZM67.9094 60.8182L67.1162 60.2093L66.7505 60.6857L66.9993 61.2324L67.9094 60.8182ZM70.7227 67V68H72.2764L71.6328 66.5858L70.7227 67ZM67.3722 67L66.4508 67.3888L66.7088 68H67.3722V67ZM65.706 63.0518L66.6273 62.663L66.3694 62.0518H65.706V63.0518ZM65.6094 63.0518V62.0518H65.1103L64.8103 62.4507L65.6094 63.0518ZM62.6392 67V68H63.1383L63.4383 67.6012L62.6392 67ZM59.1559 67L58.3705 66.381L57.0946 68H59.1559V67ZM64.0277 60.8182L64.8131 61.4372L65.1851 60.9651L64.9429 60.4151L64.0277 60.8182ZM61.305 54.6364V53.6364H59.7719L60.3899 55.0394L61.305 54.6364ZM63.6341 55.0166L65.2399 58.9225L67.0897 58.162L65.4838 54.2561L63.6341 55.0166ZM66.1648 59.5423H66.2614V57.5423H66.1648V59.5423ZM67.0609 59.1429L69.9949 55.237L68.3958 54.0358L65.4618 57.9417L67.0609 59.1429ZM69.1953 55.6364H72.6545V53.6364H69.1953V55.6364ZM71.8612 54.0275L67.1162 60.2093L68.7027 61.4271L73.4477 55.2453L71.8612 54.0275ZM66.9993 61.2324L69.8125 67.4142L71.6328 66.5858L68.8196 60.404L66.9993 61.2324ZM70.7227 66H67.3722V68H70.7227V66ZM68.2935 66.6112L66.6273 62.663L64.7846 63.4407L66.4508 67.3888L68.2935 66.6112ZM65.706 62.0518H65.6094V64.0518H65.706V62.0518ZM64.8103 62.4507L61.8401 66.3988L63.4383 67.6012L66.4085 63.653L64.8103 62.4507ZM62.6392 66H59.1559V68H62.6392V66ZM59.9413 67.619L64.8131 61.4372L63.2423 60.1992L58.3705 66.381L59.9413 67.619ZM64.9429 60.4151L62.2202 54.2333L60.3899 55.0394L63.1125 61.2212L64.9429 60.4151ZM61.305 55.6364H64.5589V53.6364H61.305V55.6364ZM72.1474 67L71.1609 66.8362L70.9677 68H72.1474V67ZM74.1999 54.6364V53.6364H73.3523L73.2134 54.4726L74.1999 54.6364ZM82.9293 56.6768L83.8578 56.3055L83.8578 56.3055L82.9293 56.6768ZM83.1044 58.9165L82.1179 58.7529L82.1169 58.7589L83.1044 58.9165ZM82.1808 61.1562L81.382 60.5546L81.3795 60.5579L82.1808 61.1562ZM80.3455 62.6353L80.7692 63.5411L80.7692 63.5411L80.3455 62.6353ZM74.6467 63.1605L73.6603 62.9961L73.4662 64.1605H74.6467V63.1605ZM75.0391 60.8061V59.8061H74.1919L74.0527 60.6417L75.0391 60.8061ZM78.8121 60.5707L78.3869 59.6656L78.3826 59.6676L78.8121 60.5707ZM79.6151 59.9126L78.8013 59.3314L78.8013 59.3314L79.6151 59.9126ZM80.0135 58.9165L80.9997 59.0826L81.0013 59.0725L80.0135 58.9165ZM79.9411 57.9265L79.008 58.2864L79.0098 58.2909L79.9411 57.9265ZM79.3555 57.2745L78.8731 58.1505L78.8784 58.1534L79.3555 57.2745ZM76.7958 57.0451V56.0451H75.9488L75.8094 56.8806L76.7958 57.0451ZM75.1357 67V68H75.9827L76.122 67.1645L75.1357 67ZM73.1339 67.1638L75.1864 54.8001L73.2134 54.4726L71.1609 66.8362L73.1339 67.1638ZM74.1999 55.6364H79.3072V53.6364H74.1999V55.6364ZM79.3072 55.6364C80.1078 55.6364 80.6926 55.7915 81.1165 56.038L82.1221 54.3093C81.3145 53.8395 80.3579 53.6364 79.3072 53.6364V55.6364ZM81.1165 56.038C81.545 56.2873 81.8286 56.6175 82.0009 57.0482L83.8578 56.3055C83.5149 55.4483 82.9252 54.7764 82.1221 54.3093L81.1165 56.038ZM82.0009 57.0482C82.1759 57.4859 82.236 58.0408 82.1179 58.7529L84.0909 59.0802C84.2545 58.0939 84.1979 57.1556 83.8578 56.3055L82.0009 57.0482ZM82.1169 58.7589C82.0034 59.4699 81.754 60.0607 81.382 60.5546L82.9795 61.7579C83.5654 60.98 83.9317 60.0777 84.0919 59.0742L82.1169 58.7589ZM81.3795 60.5579C81.0074 61.0562 80.5276 61.4462 79.9218 61.7295L80.7692 63.5411C81.6607 63.1241 82.4043 62.5281 82.982 61.7546L81.3795 60.5579ZM79.9218 61.7295C79.3249 62.0087 78.6218 62.1605 77.7919 62.1605V64.1605C78.8697 64.1605 79.869 63.9622 80.7692 63.5411L79.9218 61.7295ZM77.7919 62.1605H74.6467V64.1605H77.7919V62.1605ZM75.6331 63.3249L76.0255 60.9705L74.0527 60.6417L73.6603 62.9961L75.6331 63.3249ZM75.0391 61.8061H77.6349V59.8061H75.0391V61.8061ZM77.6349 61.8061C78.2029 61.8061 78.7488 61.7082 79.2417 61.4737L78.3826 59.6676C78.2155 59.7471 77.9766 59.8061 77.6349 59.8061V61.8061ZM79.2374 61.4757C79.716 61.2509 80.1214 60.9243 80.4288 60.4939L78.8013 59.3314C78.7063 59.4645 78.5764 59.5765 78.3869 59.6656L79.2374 61.4757ZM80.4288 60.4939C80.7283 60.0745 80.9131 59.5965 80.9996 59.0826L79.0274 58.7505C78.9851 59.0012 78.9043 59.1873 78.8013 59.3314L80.4288 60.4939ZM81.0013 59.0725C81.0813 58.5658 81.0622 58.0474 80.8723 57.5621L79.0098 58.2909C79.0372 58.3609 79.0665 58.5026 79.0257 58.7606L81.0013 59.0725ZM80.8741 57.5666C80.6744 57.0489 80.3091 56.6544 79.8326 56.3956L78.8784 58.1534C78.9652 58.2005 78.9904 58.2407 79.008 58.2864L80.8741 57.5666ZM79.8379 56.3986C79.3643 56.1377 78.8191 56.0451 78.2688 56.0451V58.0451C78.612 58.0451 78.7913 58.1054 78.8731 58.1505L79.8379 56.3986ZM78.2688 56.0451H76.7958V58.0451H78.2688V56.0451ZM75.8094 56.8806L74.1493 66.8355L76.122 67.1645L77.7822 57.2096L75.8094 56.8806ZM75.1357 66H72.1474V68H75.1357V66ZM83.2206 67L82.2341 66.8362L82.0409 68H83.2206V67ZM85.2732 54.6364V53.6364H84.4255L84.2867 54.4726L85.2732 54.6364ZM93.8939 54.6364L94.8799 54.8031L95.0773 53.6364H93.8939V54.6364ZM93.4834 57.0632V58.0632H94.3284L94.4694 57.23L93.4834 57.0632ZM87.8509 57.0632V56.0632H86.9998L86.8638 56.9034L87.8509 57.0632ZM87.4404 59.5987L86.4533 59.4389L86.2655 60.5987H87.4404V59.5987ZM92.6322 59.5987L93.6183 59.7651L93.8151 58.5987H92.6322V59.5987ZM92.2217 62.0316V63.0316H93.0671L93.2077 62.198L92.2217 62.0316ZM87.0299 62.0316V61.0316H86.1785L86.0427 61.8722L87.0299 62.0316ZM86.6194 64.5732L85.6322 64.4137L85.4449 65.5732H86.6194V64.5732ZM92.2519 64.5732L93.2379 64.7399L93.4352 63.5732H92.2519V64.5732ZM91.8414 67V68H92.6864L92.8273 67.1668L91.8414 67ZM84.2071 67.1638L86.2597 54.8001L84.2867 54.4726L82.2341 66.8362L84.2071 67.1638ZM85.2732 55.6364H93.8939V53.6364H85.2732V55.6364ZM92.9079 54.4696L92.4974 56.8964L94.4694 57.23L94.8799 54.8031L92.9079 54.4696ZM93.4834 56.0632H87.8509V58.0632H93.4834V56.0632ZM86.8638 56.9034L86.4533 59.4389L88.4276 59.7585L88.8381 57.223L86.8638 56.9034ZM87.4404 60.5987H92.6322V58.5987H87.4404V60.5987ZM91.6461 59.4323L91.2356 61.8652L93.2077 62.198L93.6183 59.7651L91.6461 59.4323ZM92.2217 61.0316H87.0299V63.0316H92.2217V61.0316ZM86.0427 61.8722L85.6322 64.4137L87.6066 64.7326L88.0171 62.1911L86.0427 61.8722ZM86.6194 65.5732H92.2519V63.5732H86.6194V65.5732ZM91.2659 64.4064L90.8554 66.8332L92.8273 67.1668L93.2379 64.7399L91.2659 64.4064ZM91.8414 66H83.2206V68H91.8414V66ZM93.7128 67L92.7263 66.8362L92.5331 68H93.7128V67ZM95.7654 54.6364V53.6364H94.9177L94.7789 54.4726L95.7654 54.6364ZM103.191 55.1374L102.716 56.0177L102.721 56.0201L103.191 55.1374ZM104.513 56.5621L103.592 56.951L103.592 56.9532L104.513 56.5621ZM104.694 58.7536L103.708 58.5891L103.707 58.5952L104.694 58.7536ZM103.776 60.9329L102.992 60.312L102.992 60.3127L103.776 60.9329ZM101.953 62.2972L101.565 61.3758L101.563 61.3765L101.953 62.2972ZM96.2 62.7681L95.214 62.6013L95.0166 63.7681H96.2V62.7681ZM96.5985 60.4137V59.4137H95.7535L95.6125 60.2468L96.5985 60.4137ZM100.432 60.2386L100.769 61.1802L100.779 61.1764L100.432 60.2386ZM101.211 59.6953L100.431 59.0691L100.43 59.0706L101.211 59.6953ZM101.603 58.7536L102.589 58.9196L102.591 58.9095L101.603 58.7536ZM101.519 57.8058L100.605 58.2119L100.609 58.2207L100.613 58.2294L101.519 57.8058ZM100.921 57.2383L100.505 58.1478L100.513 58.1513L100.521 58.1547L100.921 57.2383ZM98.3612 57.0451V56.0451H97.5142L97.3749 56.8806L98.3612 57.0451ZM96.7011 67V68H97.5481L97.6875 67.1645L96.7011 67ZM101.609 61.3494L102.544 60.9948L102.299 60.3494H101.609V61.3494ZM103.752 67V68H105.201L104.687 66.6454L103.752 67ZM100.492 67L99.5537 67.345L99.7944 68H100.492V67ZM98.4156 61.3494V60.3494H96.9827L97.477 61.6944L98.4156 61.3494ZM94.6993 67.1638L96.7519 54.8001L94.7789 54.4726L92.7263 66.8362L94.6993 67.1638ZM95.7654 55.6364H100.873V53.6364H95.7654V55.6364ZM100.873 55.6364C101.683 55.6364 102.281 55.7831 102.716 56.0177L103.665 54.2571C102.861 53.8237 101.914 53.6364 100.873 53.6364V55.6364ZM102.721 56.0201C103.148 56.2473 103.423 56.5525 103.592 56.951L105.434 56.1733C105.079 55.3322 104.474 54.6876 103.661 54.2548L102.721 56.0201ZM103.592 56.9532C103.761 57.3509 103.826 57.8795 103.708 58.5892L105.68 58.9179C105.844 57.9372 105.788 57.005 105.433 56.1711L103.592 56.9532ZM103.707 58.5952C103.593 59.3017 103.348 59.8632 102.992 60.312L104.56 61.5537C105.155 60.8032 105.521 59.9119 105.681 58.9119L103.707 58.5952ZM102.992 60.3127C102.632 60.7677 102.164 61.123 101.565 61.3758L102.342 63.2187C103.231 62.8436 103.979 62.2894 104.561 61.553L102.992 60.3127ZM101.563 61.3765C100.965 61.63 100.26 61.7681 99.4298 61.7681V63.7681C100.483 63.7681 101.46 63.5923 102.344 63.2179L101.563 61.3765ZM99.4298 61.7681H96.2V63.7681H99.4298V61.7681ZM97.186 62.935L97.5844 60.5806L95.6125 60.2468L95.214 62.6013L97.186 62.935ZM96.5985 61.4137H99.2728V59.4137H96.5985V61.4137ZM99.2728 61.4137C99.8028 61.4137 100.309 61.3449 100.769 61.1801L100.095 59.2972C99.9032 59.3658 99.6363 59.4137 99.2728 59.4137V61.4137ZM100.779 61.1764C101.254 61.0006 101.671 60.7203 101.992 60.32L100.43 59.0706C100.364 59.1533 100.262 59.2352 100.085 59.3009L100.779 61.1764ZM101.99 60.3216C102.317 59.9153 102.503 59.4319 102.589 58.9196L100.617 58.5875C100.574 58.8399 100.499 58.9843 100.431 59.0691L101.99 60.3216ZM102.591 58.9095C102.67 58.407 102.653 57.8719 102.424 57.3821L100.613 58.2294C100.617 58.2387 100.657 58.3354 100.615 58.5976L102.591 58.9095ZM102.432 57.3996C102.205 56.8891 101.805 56.5332 101.321 56.3218L100.521 58.1547C100.571 58.1768 100.591 58.1944 100.596 58.1989C100.599 58.202 100.601 58.204 100.605 58.2119L102.432 57.3996ZM101.337 56.3288C100.881 56.1205 100.363 56.0451 99.8343 56.0451V58.0451C100.191 58.0451 100.397 58.0985 100.505 58.1478L101.337 56.3288ZM99.8343 56.0451H98.3612V58.0451H99.8343V56.0451ZM97.3749 56.8806L95.7147 66.8355L97.6875 67.1645L99.3476 57.2096L97.3749 56.8806ZM96.7011 66H93.7128V68H96.7011V66ZM100.674 61.7041L102.817 67.3546L104.687 66.6454L102.544 60.9948L100.674 61.7041ZM103.752 66H100.492V68H103.752V66ZM101.431 66.655L99.3542 61.0045L97.477 61.6944L99.5537 67.345L101.431 66.655ZM98.4156 62.3494H101.609V60.3494H98.4156V62.3494ZM106.339 57.0632L105.353 56.8964L105.156 58.0632H106.339V57.0632ZM106.75 54.6364V53.6364H105.905L105.764 54.4696L106.75 54.6364ZM117.199 54.6364L118.185 54.8031L118.383 53.6364H117.199V54.6364ZM116.789 57.0632V58.0632H117.634L117.775 57.23L116.789 57.0632ZM113.04 57.0632V56.0632H112.192L112.053 56.9002L113.04 57.0632ZM111.398 67V68H112.246L112.385 67.163L111.398 67ZM108.452 67L107.465 66.837L107.273 68H108.452V67ZM110.094 57.0632L111.081 57.2262L111.273 56.0632H110.094V57.0632ZM107.325 57.23L107.736 54.8031L105.764 54.4696L105.353 56.8964L107.325 57.23ZM106.75 55.6364H117.199V53.6364H106.75V55.6364ZM116.213 54.4696L115.803 56.8964L117.775 57.23L118.185 54.8031L116.213 54.4696ZM116.789 56.0632H113.04V58.0632H116.789V56.0632ZM112.053 56.9002L110.411 66.837L112.385 67.163L114.027 57.2262L112.053 56.9002ZM111.398 66H108.452V68H111.398V66ZM109.439 67.163L111.081 57.2262L109.107 56.9002L107.465 66.837L109.439 67.163ZM110.094 56.0632H106.339V58.0632H110.094V56.0632Z" fill="white" mask="url(#path-4-outside-1_3_79)"/>
<defs>
<linearGradient id="paint0_linear_3_79" x1="44.7441" y1="3.73518" x2="72.6768" y2="29.719" gradientUnits="userSpaceOnUse">
<stop stop-color="#076FD9"/>
<stop offset="1" stop-color="#002286"/>
</linearGradient>
<linearGradient id="paint1_linear_3_79" x1="0" y1="60.5" x2="117" y2="60.5" gradientUnits="userSpaceOnUse">
<stop stop-color="#076FD9"/>
<stop offset="0.9999" stop-color="#002286"/>
<stop offset="1" stop-color="#666666"/>
</linearGradient>
</defs>
</svg>
