<svg width="118" height="71" viewBox="0 0 118 71" fill="none" xmlns="http://www.w3.org/2000/svg">
<path d="M65.7626 35.7218L75.1519 41.7305L65.7626 47.2521L56.3136 41.7306L65.7626 35.7218Z" fill="#E77829"/>
<path d="M54.1641 28.4198L45.0236 34.1861V22.6534L54.1641 28.4198Z" fill="#E77829"/>
<path d="M45.0039 0L75.8793 17.7015L75.8793 28.907L65.6483 35.0782L65.6483 23.2231L45.0041 11.344L45.0039 0Z" fill="url(#paint0_linear_3_79)"/>
<path d="M0.162997 67L2.21555 54.6364H7.3228C8.24846 54.6364 9.02119 54.8034 9.64098 55.1374C10.2608 55.4674 10.7015 55.9424 10.9631 56.5621C11.2247 57.1779 11.285 57.9084 11.1442 58.7536C11.0073 59.6068 10.7015 60.3332 10.2266 60.9329C9.75568 61.5285 9.14796 61.9833 8.40341 62.2972C7.66288 62.6112 6.82173 62.7681 5.87997 62.7681H2.65021L3.04865 60.4137H5.72301C6.16974 60.4137 6.55611 60.3554 6.8821 60.2386C7.2081 60.1179 7.46768 59.9368 7.66087 59.6953C7.85807 59.4498 7.98887 59.1359 8.05327 58.7536C8.11364 58.3712 8.08546 58.0553 7.96875 57.8058C7.85606 57.5522 7.65684 57.363 7.37109 57.2383C7.08937 57.1095 6.72715 57.0451 6.28445 57.0451H4.81143L3.15128 67H0.162997ZM8.0593 61.3494L10.2024 67H6.94247L4.86577 61.3494H8.0593ZM21.084 54.6364H24.0662L22.7441 62.6112C22.5912 63.5328 22.2391 64.3357 21.6877 65.0199C21.1403 65.7 20.4421 66.2273 19.5929 66.6016C18.7437 66.9718 17.7979 67.157 16.7555 67.157C15.7091 67.157 14.8257 66.9718 14.1053 66.6016C13.3849 66.2273 12.8637 65.7 12.5417 65.0199C12.2198 64.3357 12.1332 63.5328 12.2821 62.6112L13.6042 54.6364H16.5925L15.3066 62.3516C15.2382 62.7782 15.2704 63.1585 15.4032 63.4925C15.5401 63.8226 15.7614 64.0842 16.0673 64.2773C16.3732 64.4665 16.7475 64.5611 17.1902 64.5611C17.6369 64.5611 18.0454 64.4665 18.4157 64.2773C18.7859 64.0842 19.0918 63.8226 19.3333 63.4925C19.5748 63.1585 19.7297 62.7782 19.7981 62.3516L21.084 54.6364ZM23.8866 67L25.9392 54.6364H31.0464C31.9721 54.6364 32.7428 54.8155 33.3586 55.1737C33.9743 55.5318 34.411 56.0329 34.6686 56.6768C34.9262 57.3208 34.9845 58.0674 34.8437 58.9165C34.7068 59.7738 34.3989 60.5204 33.92 61.1562C33.4451 61.7921 32.8334 62.2852 32.0848 62.6353C31.3362 62.9854 30.485 63.1605 29.5312 63.1605H26.3859L26.7783 60.8061H29.3742C29.829 60.8061 30.2214 60.7276 30.5514 60.5707C30.8854 60.4137 31.1531 60.1944 31.3543 59.9126C31.5555 59.6309 31.6884 59.2989 31.7528 58.9165C31.8131 58.5342 31.789 58.2042 31.6803 57.9265C31.5716 57.6448 31.3765 57.4274 31.0947 57.2745C30.817 57.1216 30.4548 57.0451 30.0081 57.0451H28.5351L26.8749 67H23.8866ZM34.9599 67L37.0124 54.6364H45.6332L45.2227 57.0632H39.5902L39.1797 59.5987H44.3714L43.9609 62.0316H38.7692L38.3587 64.5732H43.9911L43.5806 67H34.9599ZM45.4521 67L47.5046 54.6364H56.1254L55.7148 57.0632H50.0824L49.6719 59.5987H54.8636L54.4531 62.0316H49.2614L48.8509 64.5732H54.4833L54.0728 67H45.4521ZM64.5589 54.6364L66.1648 58.5423H66.2614L69.1953 54.6364H72.6545L67.9094 60.8182L70.7227 67H67.3722L65.706 63.0518H65.6094L62.6392 67H59.1559L64.0277 60.8182L61.305 54.6364H64.5589ZM72.1474 67L74.1999 54.6364H79.3072C80.2328 54.6364 81.0036 54.8155 81.6193 55.1737C82.2351 55.5318 82.6718 56.0329 82.9293 56.6768C83.1869 57.3208 83.2453 58.0674 83.1044 58.9165C82.9676 59.7738 82.6597 60.5204 82.1808 61.1562C81.7058 61.7921 81.0941 62.2852 80.3455 62.6353C79.5969 62.9854 78.7457 63.1605 77.7919 63.1605H74.6467L75.0391 60.8061H77.6349C78.0897 60.8061 78.4821 60.7276 78.8121 60.5707C79.1462 60.4137 79.4138 60.1944 79.6151 59.9126C79.8163 59.6309 79.9491 59.2989 80.0135 58.9165C80.0739 58.5342 80.0497 58.2042 79.9411 57.9265C79.8324 57.6448 79.6372 57.4274 79.3555 57.2745C79.0778 57.1216 78.7156 57.0451 78.2688 57.0451H76.7958L75.1357 67H72.1474ZM83.2206 67L85.2732 54.6364H93.8939L93.4834 57.0632H87.8509L87.4404 59.5987H92.6322L92.2217 62.0316H87.0299L86.6194 64.5732H92.2519L91.8414 67H83.2206ZM93.7128 67L95.7654 54.6364H100.873C101.798 54.6364 102.571 54.8034 103.191 55.1374C103.811 55.4674 104.251 55.9424 104.513 56.5621C104.774 57.1779 104.835 57.9084 104.694 58.7536C104.557 59.6068 104.251 60.3332 103.776 60.9329C103.305 61.5285 102.698 61.9833 101.953 62.2972C101.213 62.6112 100.372 62.7681 99.4298 62.7681H96.2L96.5985 60.4137H99.2728C99.7195 60.4137 100.106 60.3554 100.432 60.2386C100.758 60.1179 101.017 59.9368 101.211 59.6953C101.408 59.4498 101.539 59.1359 101.603 58.7536C101.663 58.3712 101.635 58.0553 101.519 57.8058C101.406 57.5522 101.207 57.363 100.921 57.2383C100.639 57.1095 100.277 57.0451 99.8343 57.0451H98.3612L96.7011 67H93.7128ZM101.609 61.3494L103.752 67H100.492L98.4156 61.3494H101.609ZM106.339 57.0632L106.75 54.6364H117.199L116.789 57.0632H113.04L111.398 67H108.452L110.094 57.0632H106.339Z" fill="url(#paint1_linear_3_79)"/>
<defs>
<linearGradient id="paint0_linear_3_79" x1="44.7441" y1="3.73518" x2="72.6768" y2="29.719" gradientUnits="userSpaceOnUse">
<stop stop-color="#076FD9"/>
<stop offset="1" stop-color="#002286"/>
</linearGradient>
<linearGradient id="paint1_linear_3_79" x1="0" y1="60.5" x2="117" y2="60.5" gradientUnits="userSpaceOnUse">
<stop stop-color="#076FD9"/>
<stop offset="0.9999" stop-color="#002286"/>
<stop offset="1" stop-color="#666666"/>
</linearGradient>
</defs>
</svg>
