<svg width="118" height="69" viewBox="0 0 118 69" fill="none" xmlns="http://www.w3.org/2000/svg">
<path d="M7.18 67.78L6.93 65.37C6.89 64.9433 6.8067 64.5967 6.68 64.33C6.5534 64.0567 6.36 63.8567 6.1 63.73C5.84 63.5967 5.4934 63.53 5.06 63.53L2.17 63.52V61.13L5.18 61.12C5.8334 61.12 6.3034 60.9767 6.59 60.69C6.8767 60.4033 7.02 59.9733 7.02 59.4V59.2C7.02 58.6333 6.8767 58.21 6.59 57.93C6.31 57.6433 5.8367 57.5 5.17 57.5H2.15V55H5.62C7.1867 55 8.33 55.3033 9.05 55.91C9.7767 56.5167 10.14 57.39 10.14 58.53V58.79C10.14 59.65 9.92 60.32 9.48 60.8C9.04 61.28 8.37 61.5533 7.47 61.62V62.06L6.83 61.63C7.6034 61.6833 8.2034 61.8433 8.63 62.11C9.0567 62.3767 9.37 62.75 9.57 63.23C9.7767 63.7033 9.9267 64.2933 10.02 65L10.39 67.78H7.18ZM0 67.78V55H3.04V61.99L3.06 63.15V67.78H0ZM17.2427 68.09C15.416 68.09 14.0627 67.65 13.1827 66.77C12.3094 65.8833 11.8727 64.5867 11.8727 62.88V55H15.0127V62.94C15.0127 63.7667 15.1894 64.3933 15.5427 64.82C15.9027 65.24 16.4694 65.45 17.2427 65.45C18.0227 65.45 18.5894 65.24 18.9427 64.82C19.296 64.3933 19.4727 63.7667 19.4727 62.94V55H22.6127V62.88C22.6127 64.5867 22.176 65.8833 21.3027 66.77C20.436 67.65 19.0827 68.09 17.2427 68.09ZM26.9242 64.15V61.62H29.9542C30.6075 61.62 31.0775 61.4767 31.3642 61.19C31.6575 60.8967 31.8042 60.46 31.8042 59.88V59.26C31.8042 58.6733 31.661 58.2367 31.3742 57.95C31.0875 57.6633 30.6175 57.52 29.9642 57.52H26.9142V55H30.1942C31.821 55 33.011 55.36 33.7642 56.08C34.5242 56.8 34.9042 57.83 34.9042 59.17V59.98C34.9042 61.3267 34.5242 62.36 33.7642 63.08C33.011 63.7933 31.8242 64.15 30.2042 64.15H26.9242ZM24.8242 67.78V55H27.8842V62.33L27.9042 63.75V67.78H24.8242ZM36.6406 67.78V55H39.7006V67.78H36.6406ZM37.5506 67.78V65.17H45.5906V67.78H37.5506ZM38.4306 62.55V60.04H45.3506V62.55H38.4306ZM37.5406 57.58V55H45.5006V57.58H37.5406ZM47.5586 67.78V55H50.6186V67.78H47.5586ZM48.4686 67.78V65.17H56.5086V67.78H48.4686ZM49.3486 62.55V60.04H56.2686V62.55H49.3486ZM48.4586 57.58V55H56.4186V57.58H48.4586Z" fill="white"/>
<path d="M60.3906 68.1538L63.9006 61.1738V61.8338L60.5206 55.3738H63.8406L66.0906 59.9138H66.2606L68.5106 55.3738H71.8306L68.4406 61.8338V61.1738L71.9506 68.1538H68.5606L66.2606 63.2838H66.0906L63.7806 68.1538H60.3906ZM75.4516 64.5238V61.9938H78.4816C79.1356 61.9938 79.6056 61.8505 79.8916 61.5638C80.1856 61.2705 80.3316 60.8338 80.3316 60.2538V59.6338C80.3316 59.0471 80.1886 58.6105 79.9016 58.3238C79.6156 58.0371 79.1456 57.8938 78.4916 57.8938H75.4416V55.3738H78.7216C80.3486 55.3738 81.5386 55.7338 82.2916 56.4538C83.0516 57.1738 83.4316 58.2038 83.4316 59.5438V60.3538C83.4316 61.7005 83.0516 62.7338 82.2916 63.4538C81.5386 64.1671 80.3516 64.5238 78.7316 64.5238H75.4516ZM73.3516 68.1538V55.3738H76.4116V62.7038L76.4316 64.1238V68.1538H73.3516ZM85.1686 68.1538V55.3738H88.2286V68.1538H85.1686ZM86.0786 68.1538V65.5438H94.1186V68.1538H86.0786ZM86.9586 62.9238V60.4138H93.8786V62.9238H86.9586ZM86.0686 57.9538V55.3738H94.0286V57.9538H86.0686ZM103.267 68.1538L103.017 65.7438C102.977 65.3171 102.893 64.9705 102.767 64.7038C102.64 64.4305 102.447 64.2305 102.187 64.1038C101.927 63.9705 101.58 63.9038 101.147 63.9038L98.2566 63.8938V61.5038L101.267 61.4938C101.92 61.4938 102.39 61.3505 102.677 61.0638C102.963 60.7771 103.107 60.3471 103.107 59.7738V59.5738C103.107 59.0071 102.963 58.5838 102.677 58.3038C102.397 58.0171 101.923 57.8738 101.257 57.8738H98.2366V55.3738H101.707C103.273 55.3738 104.417 55.6771 105.137 56.2838C105.863 56.8905 106.227 57.7638 106.227 58.9038V59.1638C106.227 60.0238 106.007 60.6938 105.567 61.1738C105.127 61.6538 104.457 61.9271 103.557 61.9938V62.4338L102.917 62.0038C103.69 62.0571 104.29 62.2171 104.717 62.4838C105.143 62.7505 105.457 63.1238 105.657 63.6038C105.863 64.0771 106.013 64.6671 106.107 65.3738L106.477 68.1538H103.267ZM96.0866 68.1538V55.3738H99.1266V62.3638L99.1466 63.5238V68.1538H96.0866ZM110.871 68.1538V55.9738H114.001V68.1538H110.871ZM107.341 57.9838V55.3738H117.521V57.9838H107.341Z" fill="white"/>
<path d="M50.8594 16.7188L38.6719 11.9531L50.2344 28.5938L78.5934 0L50.8594 16.7188Z" fill="white"/>
<path d="M75.6721 38.75L63.8751 22.8906L37 50L63.8751 34.2969L75.6721 38.75Z" fill="white"/>
</svg>
