<svg width="154" height="50" viewBox="0 0 154 50" fill="none" xmlns="http://www.w3.org/2000/svg">
<path d="M0.162997 32L2.21555 19.6364H7.3228C8.24846 19.6364 9.02119 19.8034 9.64098 20.1374C10.2608 20.4674 10.7015 20.9424 10.9631 21.5621C11.2247 22.1779 11.285 22.9084 11.1442 23.7536C11.0073 24.6068 10.7015 25.3332 10.2266 25.9329C9.75568 26.5285 9.14796 26.9833 8.40341 27.2972C7.66288 27.6112 6.82173 27.7681 5.87997 27.7681H2.65021L3.04865 25.4137H5.72301C6.16974 25.4137 6.55611 25.3554 6.8821 25.2386C7.2081 25.1179 7.46768 24.9368 7.66087 24.6953C7.85807 24.4498 7.98887 24.1359 8.05327 23.7536C8.11364 23.3712 8.08546 23.0553 7.96875 22.8058C7.85606 22.5522 7.65684 22.363 7.37109 22.2383C7.08937 22.1095 6.72715 22.0451 6.28445 22.0451H4.81143L3.15128 32H0.162997ZM8.0593 26.3494L10.2024 32H6.94247L4.86577 26.3494H8.0593ZM21.084 19.6364H24.0662L22.7441 27.6112C22.5912 28.5328 22.2391 29.3357 21.6877 30.0199C21.1403 30.7 20.4421 31.2273 19.5929 31.6016C18.7437 31.9718 17.7979 32.157 16.7555 32.157C15.7091 32.157 14.8257 31.9718 14.1053 31.6016C13.3849 31.2273 12.8637 30.7 12.5417 30.0199C12.2198 29.3357 12.1332 28.5328 12.2821 27.6112L13.6042 19.6364H16.5925L15.3066 27.3516C15.2382 27.7782 15.2704 28.1585 15.4032 28.4925C15.5401 28.8226 15.7614 29.0842 16.0673 29.2773C16.3732 29.4665 16.7475 29.5611 17.1902 29.5611C17.6369 29.5611 18.0454 29.4665 18.4157 29.2773C18.7859 29.0842 19.0918 28.8226 19.3333 28.4925C19.5748 28.1585 19.7297 27.7782 19.7981 27.3516L21.084 19.6364ZM23.8866 32L25.9392 19.6364H31.0464C31.9721 19.6364 32.7428 19.8155 33.3586 20.1737C33.9743 20.5318 34.411 21.0329 34.6686 21.6768C34.9262 22.3208 34.9845 23.0674 34.8437 23.9165C34.7068 24.7738 34.3989 25.5204 33.92 26.1562C33.4451 26.7921 32.8334 27.2852 32.0848 27.6353C31.3362 27.9854 30.485 28.1605 29.5312 28.1605H26.3859L26.7783 25.8061H29.3742C29.829 25.8061 30.2214 25.7276 30.5514 25.5707C30.8854 25.4137 31.1531 25.1944 31.3543 24.9126C31.5555 24.6309 31.6884 24.2989 31.7528 23.9165C31.8131 23.5342 31.789 23.2042 31.6803 22.9265C31.5716 22.6448 31.3765 22.4274 31.0947 22.2745C30.817 22.1216 30.4548 22.0451 30.0081 22.0451H28.5351L26.8749 32H23.8866ZM34.9599 32L37.0124 19.6364H45.6332L45.2227 22.0632H39.5902L39.1797 24.5987H44.3714L43.9609 27.0316H38.7692L38.3587 29.5732H43.9911L43.5806 32H34.9599ZM45.4521 32L47.5046 19.6364H56.1254L55.7148 22.0632H50.0824L49.6719 24.5987H54.8636L54.4531 27.0316H49.2614L48.8509 29.5732H54.4833L54.0728 32H45.4521ZM101.082 19.6364L102.688 23.5423H102.785L105.719 19.6364H109.178L104.433 25.8182L107.246 32H103.896L102.229 28.0518H102.133L99.1626 32H95.6793L100.551 25.8182L97.8285 19.6364H101.082ZM108.671 32L110.723 19.6364H115.831C116.756 19.6364 117.527 19.8155 118.143 20.1737C118.759 20.5318 119.195 21.0329 119.453 21.6768C119.71 22.3208 119.769 23.0674 119.628 23.9165C119.491 24.7738 119.183 25.5204 118.704 26.1562C118.229 26.7921 117.618 27.2852 116.869 27.6353C116.12 27.9854 115.269 28.1605 114.315 28.1605H111.17L111.562 25.8061H114.158C114.613 25.8061 115.006 25.7276 115.336 25.5707C115.67 25.4137 115.937 25.1944 116.138 24.9126C116.34 24.6309 116.473 24.2989 116.537 23.9165C116.597 23.5342 116.573 23.2042 116.464 22.9265C116.356 22.6448 116.161 22.4274 115.879 22.2745C115.601 22.1216 115.239 22.0451 114.792 22.0451H113.319L111.659 32H108.671ZM119.744 32L121.797 19.6364H130.417L130.007 22.0632H124.374L123.964 24.5987H129.156L128.745 27.0316H123.553L123.143 29.5732H128.775L128.365 32H119.744ZM130.236 32L132.289 19.6364H137.396C138.322 19.6364 139.094 19.8034 139.714 20.1374C140.334 20.4674 140.775 20.9424 141.036 21.5621C141.298 22.1779 141.358 22.9084 141.217 23.7536C141.081 24.6068 140.775 25.3332 140.3 25.9329C139.829 26.5285 139.221 26.9833 138.477 27.2972C137.736 27.6112 136.895 27.7681 135.953 27.7681H132.723L133.122 25.4137H135.796C136.243 25.4137 136.629 25.3554 136.955 25.2386C137.281 25.1179 137.541 24.9368 137.734 24.6953C137.931 24.4498 138.062 24.1359 138.127 23.7536C138.187 23.3712 138.159 23.0553 138.042 22.8058C137.929 22.5522 137.73 22.363 137.444 22.2383C137.163 22.1095 136.8 22.0451 136.358 22.0451H134.885L133.225 32H130.236ZM138.133 26.3494L140.276 32H137.016L134.939 26.3494H138.133ZM142.862 22.0632L143.273 19.6364H153.723L153.312 22.0632H149.563L147.921 32H144.975L146.617 22.0632H142.862Z" fill="white"/>
<path d="M82.7626 35.7218L92.1519 41.7305L82.7626 47.2521L73.3136 41.7306L82.7626 35.7218Z" fill="white"/>
<path d="M71.1641 28.4198L62.0236 34.1861V22.6535L71.1641 28.4198Z" fill="white"/>
<path d="M62.0039 0L92.8793 17.7015L92.8793 28.907L82.6483 35.0782L82.6483 23.2231L62.0041 11.344L62.0039 0Z" fill="white"/>
</svg>
